<svg width="36" height="26" viewBox="0 0 36 26" fill="none" xmlns="http://www.w3.org/2000/svg">
<path d="M35.6152 18.9053C30.6339 18.2591 24.0052 18.5316 17.8079 25.5004C11.6106 18.5316 4.98189 18.2591 0.000534058 18.9053L3.45218 15.3782C10.2927 14.4126 15.8859 17.4156 17.8079 19.0377C19.7298 17.4156 25.3231 14.4126 32.1636 15.3782L35.6152 18.9053Z" fill="#F2AC0D"/>
<path d="M21.1943 22.3466C20.0596 23.2023 18.9267 24.2421 17.8078 25.5003C16.689 24.2421 15.5561 23.2023 14.4213 22.3466L17.8078 19.0376L21.1943 22.3466Z" fill="#D29303"/>
<path d="M29.3671 13.3946C29.341 12.1579 27.8831 9.21609 22.8455 6.24819C21.0558 5.19381 17.8704 2.96789 17.8079 0C17.7454 2.96789 14.56 5.19381 12.7703 6.24819C7.7327 9.21609 6.27478 12.1579 6.24875 13.3946C8.51372 12.965 13.9418 13.7851 17.8079 17.1044C21.674 13.7851 27.1021 12.965 29.3671 13.3946Z" fill="#26534C"/>
</svg>
